<svg width="19" height="18" xmlns="http://www.w3.org/2000/svg" xmlns:xlink="http://www.w3.org/1999/xlink" xmlns:svgjs="http://svgjs.com/svgjs" viewBox="0 0.145 19 17.71" fill="#NANNANNAN"><svg xmlns="http://www.w3.org/2000/svg" width="19" height="18" viewBox="1.832 1.373 17.164 15.999"><path paint-order="stroke fill markers" fill-rule="evenodd" d="M17.724 17.372H3.104a1.276 1.276 0 0 1-1.272-1.28v-7.68s3.319 1.719 6.357 2.423v.778c0 .353.284.64.636.64h3.178a.638.638 0 0 0 .636-.64v-.778c3.038-.704 6.357-2.422 6.357-2.422v7.68c0 .706-.57 1.28-1.272 1.28zm-6.357-7.68c.352 0 .636.287.636.64v.64c0 .354-.284.64-.636.64H9.46a.638.638 0 0 1-.635-.64v-.64c0-.353.284-.64.635-.64h1.907zm1.272 0a.638.638 0 0 0-.636-.64H8.825a.638.638 0 0 0-.636.64v.574C5.15 9.542 1.832 7.773 1.832 7.773v-2.56c0-.707.569-1.28 1.271-1.28h3.814v-1.28c0-.707.57-1.28 1.272-1.28h4.45c.702 0 1.271.573 1.271 1.28v1.28h3.814c.703 0 1.272.573 1.272 1.28v2.56s-3.32 1.768-6.357 2.493v-.573zm0-6.399a.638.638 0 0 0-.636-.64H8.825a.638.638 0 0 0-.636.64v.64h4.45v-.64z"/></svg></svg>