<svg width="24" height="22" xmlns="http://www.w3.org/2000/svg" xmlns:xlink="http://www.w3.org/1999/xlink" xmlns:svgjs="http://svgjs.com/svgjs" viewBox="0 0.497 24 21.007" fill="#NANNANNAN"><svg xmlns="http://www.w3.org/2000/svg" width="24" height="22" viewBox="1.03 1.829 22.984 20.117"><path paint-order="stroke fill markers" fill-rule="evenodd" d="M19.757 21.947V20.27h-.021c.008-.14.021-.277.021-.419v-7.125-2.095c0-3.935-3.24-7.125-7.235-7.125-3.996 0-7.236 3.19-7.236 7.125v9.22c0 .142.013.28.022.42h-.022v1.676s-4.256-.07-4.256-4.61c0-2.576 1.368-3.711 2.554-4.213v-2.493c0-4.861 4.001-8.802 8.938-8.802 4.936 0 8.938 3.94 8.938 8.802v2.493c1.185.502 2.554 1.637 2.554 4.213 0 4.54-4.257 4.61-4.257 4.61zm-12.768 0h-.852v-9.22h.852v9.22zm11.917 0h-.851v-9.22h.851v9.22z"/></svg></svg>