<svg width="24" height="18" xmlns="http://www.w3.org/2000/svg" xmlns:xlink="http://www.w3.org/1999/xlink" xmlns:svgjs="http://svgjs.com/svgjs" viewBox="0 0.361 24 17.277" fill="#NANNANNAN"><svg xmlns="http://www.w3.org/2000/svg" width="24" height="18" viewBox="3.465 1.769 22.232 16.004"><path paint-order="stroke fill markers" fill-rule="evenodd" d="M14.603 3.155c1.573 0 3.428-1.386 4.384-1.386 5.789 0 9.048 15.946 4.72 15.946-2.697 0-5.072-4.622-9.118-4.622-5.003 0-5.495 4.68-9.148 4.68-4.328 0-1.011-16.004 4.778-16.004.843 0 2.81 1.386 4.384 1.386zm5.395 2.427c.373 0 .675.31.675.693a.684.684 0 0 1-.675.694.684.684 0 0 1-.674-.694c0-.382.302-.693.674-.693zm2.023 2.08c.373 0 .675.31.675.693a.684.684 0 0 1-.675.694.684.684 0 0 1-.674-.694c0-.383.302-.693.674-.693zm-2.023 2.08c.373 0 .675.31.675.693a.684.684 0 0 1-.675.694.684.684 0 0 1-.674-.694c0-.382.302-.693.674-.693zm-2.065-2.08c.372 0 .674.31.674.693a.684.684 0 0 1-.674.694.684.684 0 0 1-.675-.694c0-.383.302-.693.675-.693zM9.88 4.542c1.677 0 3.035 1.397 3.035 3.12s-1.358 3.12-3.035 3.12c-1.676 0-3.035-1.397-3.035-3.12s1.36-3.12 3.035-3.12zm0 1.387c.932 0 1.687.776 1.687 1.733 0 .957-.755 1.733-1.687 1.733-.93 0-1.686-.776-1.686-1.733 0-.957.755-1.733 1.686-1.733z"/></svg></svg>