<svg width="16" height="27" xmlns="http://www.w3.org/2000/svg" xmlns:xlink="http://www.w3.org/1999/xlink" xmlns:svgjs="http://svgjs.com/svgjs" viewBox="0.941 0 14.119 27" fill="#NANNANNAN"><svg xmlns="http://www.w3.org/2000/svg" width="16" height="27" viewBox="1.868 1.476 13.263 25.364"><path paint-order="stroke fill markers" fill-rule="evenodd" d="M14.434 10.636H11.64v-1.41h2.793c.385 0 .698.316.698.705 0 .39-.313.705-.698.705zm-2.095-6.341a2.104 2.104 0 0 0-2.094-2.114h-3.49a2.104 2.104 0 0 0-2.094 2.114v4.227h-.698V4.295c0-1.557 1.25-2.819 2.792-2.819h3.49c1.542 0 2.793 1.262 2.793 2.819v4.227h-.699V4.295zm-6.98 6.34H2.567a.701.701 0 0 1-.699-.704c0-.389.313-.704.699-.704h2.792v1.409zM8.5 12.398c-1.35 0-2.443-1.104-2.443-2.466S7.15 7.465 8.5 7.465c1.35 0 2.443 1.104 2.443 2.466S9.85 12.397 8.5 12.397zm0-3.875c-.77 0-1.396.63-1.396 1.41 0 .777.625 1.408 1.396 1.408.771 0 1.396-.63 1.396-1.409 0-.778-.625-1.409-1.396-1.409zm-2.365 2.893A2.777 2.777 0 0 0 8.5 12.75c1 0 1.872-.535 2.365-1.334a2.81 2.81 0 0 1 2.173 2.744v7.045a2.807 2.807 0 0 1-2.095 2.719v-3.82c0-1.362-1.094-2.466-2.443-2.466-1.35 0-2.443 1.104-2.443 2.466v3.82a2.807 2.807 0 0 1-2.094-2.719V14.16c0-1.341.93-2.458 2.172-2.744zM8.5 18.386c.964 0 1.745.789 1.745 1.761v4.932c0 .973-.781 1.762-1.745 1.762a1.753 1.753 0 0 1-1.745-1.762v-4.932c0-.972.781-1.761 1.745-1.761z"/></svg></svg>